<?xml version="1.0" encoding="UTF-8"?>
<!DOCTYPE svg PUBLIC "-//W3C//DTD SVG 1.1//EN" "http://www.w3.org/Graphics/SVG/1.1/DTD/svg11.dtd">
<svg xmlns="http://www.w3.org/2000/svg" version="1.1" width="512px" height="512px" style="shape-rendering:geometricPrecision; text-rendering:geometricPrecision; image-rendering:optimizeQuality; fill-rule:evenodd; clip-rule:evenodd" xmlns:xlink="http://www.w3.org/1999/xlink">
<g><path style="opacity:0.987" fill="#ffb386" d="M 232.5,-0.5 C 247.833,-0.5 263.167,-0.5 278.5,-0.5C 368.144,10.3879 435.644,54.7213 481,132.5C 497.695,163.971 507.861,197.304 511.5,232.5C 511.5,247.833 511.5,263.167 511.5,278.5C 500.612,368.144 456.279,435.644 378.5,481C 347.029,497.695 313.696,507.861 278.5,511.5C 263.167,511.5 247.833,511.5 232.5,511.5C 142.856,500.612 75.3562,456.279 30,378.5C 13.3053,347.029 3.1386,313.696 -0.5,278.5C -0.5,263.167 -0.5,247.833 -0.5,232.5C 10.3875,142.857 54.7208,75.3573 132.5,30C 163.971,13.3053 197.304,3.1386 232.5,-0.5 Z M 254.5,57.5 C 325.261,59.9534 380.761,89.9534 421,147.5C 457.07,206.803 462.404,268.803 437,333.5C 400.505,408.925 340.172,448.925 256,453.5C 182.94,450.821 126.606,419.155 87,358.5C 53.8258,300.284 49.4924,239.951 74,177.5C 110.497,102.152 170.663,62.1517 254.5,57.5 Z"/></g>
<g><path style="opacity:0.985" fill="#ffb386" d="M 255.5,120.5 C 298.028,120.519 333.528,136.186 362,167.5C 365.079,171.324 367.912,175.324 370.5,179.5C 355.093,191.067 339.26,202.067 323,212.5C 317.9,207.4 312.733,202.233 307.5,197C 276.908,174.695 245.908,174.029 214.5,195C 186.014,219.142 177.847,248.975 190,284.5C 204.296,314.158 227.962,329.825 261,331.5C 278.313,330.397 293.813,324.563 307.5,314C 312.733,308.767 317.9,303.6 323,298.5C 339.26,308.933 355.093,319.933 370.5,331.5C 343.382,369.232 306.382,388.899 259.5,390.5C 201.234,387.639 159.734,359.973 135,307.5C 116.454,256.646 123.787,209.979 157,167.5C 183.506,138.496 216.34,122.829 255.5,120.5 Z"/></g>
</svg>
